<?xml version="1.0" encoding="UTF-8"?>
<svg width="1200pt" height="1200pt" version="1.1" viewBox="0 0 1200 1200" xmlns="http://www.w3.org/2000/svg">
 <path d="m711.21 907.21c42.227-10.09 80.371-32.832 109.32-65.188 20.039-26.359 33.598-57.062 39.574-89.633 5.9766-32.57 4.2031-66.086-5.1719-97.844-22.527-107.81-50.137-216.18-50.441-217.31l-0.058594-0.21875c-4.0781-14.52-13.746-26.824-26.887-34.223s-28.676-9.2852-43.203-5.2422c-6.8906 1.8203-13.387 4.8867-19.172 9.0508l-13-53.012s-0.070313-0.25391-0.10938-0.40234l0.003906 0.003906c-4.4336-15.723-14.918-29.047-29.16-37.055-14.238-8.0039-31.07-10.035-46.809-5.6484-16.035 4.2539-29.738 14.68-38.117 29l-0.11719-0.4375c-4.4297-16.066-15.109-29.684-29.656-37.812-14.547-8.1289-31.746-10.09-47.75-5.4414-17.445 4.9492-32.156 16.723-40.812 32.656-5.7461 11.305-7.6406 24.176-5.3906 36.656-11.91-4.0273-24.75-4.4102-36.879-1.1055-1.7539 0.46875-3.6484 0.98047-5.1602 1.6172h-0.003906c-15.727 5.5781-28.559 17.234-35.613 32.359-6.832 14.48-7.5664 31.102-2.0312 46.125l93.422 253.88-39.656-25.48c-27.371-22.746-63.523-31.977-98.449-25.133-11.445 2.6133-21.945 8.3555-30.32 16.586-8.3789 8.2266-14.305 18.621-17.121 30.02-1.957 10.73-0.85156 21.801 3.1953 31.934 4.043 10.133 10.863 18.918 19.676 25.355l0.050781 0.18359 150.4 117.35c99.004 77.41 154.23 62.602 212.6 46.953zm56.762-460.42c1.1836 4.418 27.996 110.26 49.961 215.52 28.965 138.68-47.414 189.87-116.55 208.41l-32.594 8.7383c-53.219 14.27-95.27 25.543-179.57-40.238l-150.3-117.26c-3.2773-2.1172-5.8867-5.1211-7.5312-8.6641-1.6406-3.5391-2.2461-7.4727-1.7461-11.344 1.4375-4.5352 4.082-8.5898 7.6523-11.734 3.5664-3.1406 7.9258-5.25 12.605-6.1016 24.082-3.5039 48.496 3.6289 66.902 19.547l0.86328 0.58984 87.488 56.203v-0.003906c3.332 2.1367 7.25 3.1719 11.199 2.9648 3.9531-0.21094 7.7383-1.6562 10.824-4.1367 3.1016-2.4531 5.3516-5.8164 6.4375-9.6172s0.95312-7.8477-0.37891-11.566l-112.87-306.72v-0.003907c-2.0391-5.582-1.7461-11.75 0.80859-17.117 2.8203-5.9922 7.9258-10.605 14.176-12.801l2.1523-0.57812c5.7383-1.6406 11.883-1.1055 17.25 1.5078 5.3633 2.6133 9.5742 7.1172 11.82 12.648l0.097656 0.36328 69.707 178.42c1.7891 4.5664 5.2812 8.2617 9.7422 10.301 4.4609 2.0352 9.5352 2.2617 14.16 0.625 4.625-1.6328 8.4375-5 10.625-9.3906 2.1914-4.3906 2.5859-9.4609 1.1016-14.137l-68.816-216.69-0.058594-0.21875c-2.3906-5.8906-2.2266-12.512 0.45703-18.277 4.1211-6.8594 10.77-11.828 18.512-13.844l0.98438-0.26562h0.003906c6.457-1.1719 13.121 0.21094 18.578 3.8594 5.4609 3.6445 9.2891 9.2695 10.684 15.684l70.355 210.17c1.5469 4.6055 4.8008 8.4336 9.0938 10.699 4.2969 2.2656 9.2969 2.793 13.965 1.4688 4.668-1.3281 8.6406-4.3984 11.105-8.5781 2.4609-4.1758 3.2227-9.1406 2.1289-13.867l-40.672-174.9c-0.058593-0.21875-0.10937-0.40234-0.16797-0.62109-1.4453-6.1484-0.39453-12.621 2.9258-18 3.3164-5.3789 8.6289-9.2188 14.773-10.688 6.0312-1.7891 12.523-1.1289 18.07 1.8359s9.7031 7.9961 11.57 14.004l48.43 197.7c1.1797 4.832 4.2148 9.0039 8.4531 11.613 4.2383 2.6055 9.332 3.4375 14.176 2.3125 4.8438-1.1289 9.043-4.1172 11.695-8.3242 2.6523-4.2031 3.5391-9.2812 2.4727-14.137l-20.676-94.188c-0.070313-0.26953-0.14844-0.54688-0.22656-0.83984-1.1484-4.9297-0.29297-10.113 2.375-14.414 2.668-4.3008 6.9297-7.3711 11.859-8.5312 4.8398-1.5 10.082-1.0156 14.566 1.3477 4.4844 2.3633 7.8477 6.4102 9.3516 11.254z" fill="#b8c1ec"/>
 <path d="m751.75 317.05h-7.2578c-6.75 0.31641-12.82 4.2109-15.922 10.215-3.1016 6.0078-2.7617 13.211 0.88672 18.898 3.6523 5.6875 10.059 8.9961 16.812 8.6797 24.074-1.9102 47.875 6.1836 65.801 22.375 23.129 24.828 35.246 57.949 33.598 91.84 0.14844 6.7539 3.8867 12.91 9.8086 16.16 5.9219 3.2461 13.125 3.0859 18.898-0.41797 5.7734-3.5039 9.2344-9.8203 9.0859-16.574 1.6055-44.113-14.855-86.973-45.578-118.67-23.441-21.547-54.305-33.191-86.133-32.504z" fill="#b8c1ec"/>
</svg>
