<?xml version="1.0" encoding="UTF-8"?>
<svg width="1200pt" height="1200pt" version="1.1" viewBox="0 0 1200 1200" xmlns="http://www.w3.org/2000/svg">
 <path d="m1046.9 726.9c-14.051-14.578-32.941-22.605-53.18-22.605-6.7852 0-13.465 0.91406-19.922 2.7188v-89.168c0-6.5039-1.7695-12.609-4.8516-17.859 3.0703-5.25 4.8516-11.344 4.8516-17.859v-94.629c0-10.207-5.0039-19.793-13.395-25.641-8.2969-5.7891-18.891-7.1602-28.336-3.6797-4.7344 1.7461-9.7266 2.5195-14.883 2.332-20.016-0.76172-36.316-17.027-37.113-37.043-0.42187-10.652 3.3984-20.73 10.746-28.395 7.3711-7.6523 17.285-11.871 27.902-11.871 4.5469 0 8.9883 0.77344 13.195 2.3086 9.5859 3.4805 20.285 2.0742 28.617-3.7617 8.3086-5.8242 13.266-15.352 13.266-25.5v-94.641c0-19.535-15.891-35.438-35.438-35.438h-89.168c1.8047-6.457 2.7188-13.137 2.7188-19.922 0-20.273-8.0508-39.176-22.676-53.238-14.613-14.051-33.844-21.328-54.152-20.531-38.238 1.5234-69.328 32.672-70.77 70.887-0.29297 7.7812 0.59766 15.422 2.6602 22.805h-89.168c-6.5039 0-12.609 1.7695-17.859 4.8516-5.25-3.0703-11.344-4.8516-17.859-4.8516h-94.641c-10.148 0-19.676 4.957-25.5 13.266-5.8359 8.332-7.2422 19.031-3.7617 28.605 1.5352 4.2188 2.3086 8.6602 2.3086 13.207 0 10.605-4.207 20.496-11.848 27.855-7.6289 7.3594-17.684 11.18-28.324 10.793-20.016-0.75-36.328-17.004-37.137-37.02-0.21094-5.168 0.57422-10.195 2.3203-14.953 3.4688-9.457 2.0859-20.051-3.7031-28.348-5.8594-8.3906-15.457-13.406-25.676-13.406h-94.57c-19.535 0-35.438 15.891-35.438 35.438v89.168c-6.457-1.8047-13.137-2.7188-19.922-2.7188-20.273 0-39.188 8.0508-53.238 22.676-14.051 14.613-21.34 33.844-20.531 54.152 1.5234 38.238 32.672 69.316 70.898 70.77 7.7812 0.29297 15.422-0.59766 22.793-2.6602v89.168c0 6.5039 1.7695 12.609 4.8516 17.859-3.0703 5.25-4.8516 11.344-4.8516 17.859v94.641c0 10.148 4.957 19.676 13.266 25.5 8.332 5.8359 19.031 7.2539 28.605 3.7617 4.2188-1.5352 8.6602-2.3086 13.207-2.3086 10.605 0 20.496 4.207 27.855 11.848 7.3594 7.6289 11.18 17.695 10.793 28.324-0.75 20.016-17.004 36.328-37.02 37.137-5.1562 0.21094-10.195-0.57422-14.953-2.3203-9.457-3.4688-20.051-2.0859-28.348 3.7031-8.3906 5.8594-13.406 15.457-13.406 25.676v94.57c0 19.535 15.891 35.438 35.438 35.438h89.168c-1.8047 6.457-2.7188 13.137-2.7188 19.922 0 20.238 8.0273 39.129 22.617 53.18 13.887 13.383 31.969 20.66 51.176 20.66 0.94922 0 1.8984-0.023437 2.8594-0.058593 38.238-1.4297 69.398-32.496 70.957-70.723 0.31641-7.8398-0.57422-15.539-2.6602-22.98h89.168c6.5039 0 12.609-1.7695 17.859-4.8516 5.25 3.0703 11.344 4.8516 17.859 4.8516h94.641c10.148 0 19.676-4.957 25.5-13.266 5.8359-8.332 7.2539-19.031 3.7734-28.617-1.5352-4.207-2.3086-8.6484-2.3086-13.207 0-10.617 4.2188-20.531 11.883-27.891 7.6523-7.3594 17.73-11.18 28.395-10.746 20.016 0.79688 36.281 17.098 37.043 37.113 0.19922 5.1445-0.58594 10.148-2.332 14.883-3.4805 9.4453-2.0977 20.039 3.6914 28.336 5.8477 8.3906 15.434 13.395 25.641 13.395h94.629c19.535 0 35.438-15.891 35.438-35.438v-89.168c7.4297 2.0859 15.129 2.9766 22.98 2.6602 38.227-1.5469 69.293-32.719 70.723-70.957 0.71484-20.273-6.5977-39.469-20.637-54.047zm-827.33-268.72c-4.7344 1.7461-9.7266 2.5195-14.883 2.332-20.016-0.76172-36.316-17.027-37.113-37.043-0.42187-10.652 3.3984-20.73 10.746-28.395 7.3711-7.6523 17.285-11.871 27.902-11.871 4.5469 0 8.9883 0.77344 13.195 2.3086 9.5859 3.4805 20.285 2.0742 28.617-3.7617 8.3086-5.8242 13.266-15.352 13.266-25.5v-94.641c0-0.15234 0.12891-0.28125 0.28125-0.28125h89.168c-2.0859 7.4297-2.9766 15.141-2.6602 22.98 1.5469 38.227 32.719 69.293 70.957 70.723 20.25 0.76172 39.457-6.5625 54.023-20.602 14.578-14.051 22.617-32.93 22.617-53.18 0-6.7852-0.91406-13.465-2.7188-19.922h89.168c0.15234 0 0.28125 0.12891 0.28125 0.28125v89.168c-6.457-1.8047-13.137-2.7188-19.922-2.7188-20.273 0-39.188 8.0508-53.238 22.676-4.3945 4.5703-8.1211 9.5859-11.145 14.953-6.0586 10.723-9.3164 22.816-9.4336 35.414-0.011719 1.2539 0.011719 2.5195 0.058594 3.7969 1.5234 38.238 32.672 69.316 70.898 70.77 7.7812 0.29297 15.422-0.59766 22.793-2.6602v89.168c0 0.15234-0.12891 0.28125-0.28125 0.28125h-94.629c-8.2852 0-16.16 3.3047-21.938 9.0469-0.058594 0.058594-0.10547 0.10547-0.15234 0.16406-0.36328 0.375-0.73828 0.75-1.0781 1.1367-0.86719 0.96094-1.6875 1.9805-2.4375 3.0586-5.7891 8.2969-7.1719 18.891-3.7031 28.348 0.21094 0.58594 0.41016 1.1719 0.59766 1.7695 0.035156 0.11719 0.070312 0.22266 0.09375 0.33984 0.14062 0.45703 0.26953 0.91406 0.38672 1.3711 0.058594 0.22266 0.11719 0.45703 0.16406 0.69141 0.082031 0.35156 0.16406 0.69141 0.24609 1.043 0.058594 0.25781 0.10547 0.52734 0.15234 0.78516 0.058594 0.32812 0.11719 0.64453 0.17578 0.97266 0.046874 0.26953 0.082031 0.53906 0.12891 0.82031 0.046875 0.32812 0.09375 0.64453 0.12891 0.97266 0.035156 0.26953 0.058594 0.53906 0.082031 0.80859 0.035157 0.33984 0.058594 0.67969 0.082031 1.0195 0.023438 0.25781 0.035157 0.51562 0.046876 0.77344 0.023437 0.375 0.023437 0.75 0.035156 1.125 0 0.22266 0.011718 0.45703 0.011718 0.67969 0 0.29297-0.011718 0.59766-0.011718 0.90234-0.011719 0.35156-0.011719 0.71484-0.023438 1.0664-0.011718 0.29297-0.035156 0.58594-0.058594 0.87891-0.023437 0.33984-0.046874 0.67969-0.070312 1.0078-0.035156 0.36328-0.082031 0.73828-0.12891 1.1016-0.023438 0.23438-0.058594 0.46875-0.09375 0.70312-0.070313 0.49219-0.15234 0.98438-0.24609 1.4766-0.011719 0.082031-0.023438 0.16406-0.046875 0.24609-2.8359 14.918-14.367 26.895-29.039 30.41-0.082031 0.023438-0.15234 0.035157-0.23437 0.058594-0.41016 0.09375-0.82031 0.17578-1.2422 0.25781-0.25781 0.046874-0.51562 0.10547-0.78516 0.15234-0.28125 0.046875-0.5625 0.09375-0.85547 0.14062-0.38672 0.058594-0.77344 0.11719-1.1602 0.16406-0.19922 0.023437-0.41016 0.046875-0.60938 0.070312-0.44531 0.046875-0.90234 0.082031-1.3477 0.11719-0.1875 0.011719-0.375 0.023437-0.57422 0.035156-0.42188 0.023437-0.84375 0.035156-1.2773 0.046875-0.28125 0.011719-0.5625 0.011719-0.84375 0.011719-0.33984 0-0.67969 0-1.0195-0.011719-0.36328-0.011719-0.72656-0.023438-1.0898-0.035156-0.25781-0.011719-0.51562-0.023438-0.77344-0.046875-0.375-0.023438-0.73828-0.058594-1.1133-0.09375-0.29297-0.023438-0.58594-0.058594-0.86719-0.09375-0.29297-0.035157-0.58594-0.082031-0.87891-0.11719-0.375-0.058593-0.75-0.11719-1.125-0.17578-0.16406-0.023438-0.31641-0.058594-0.48047-0.09375-15.457-2.9766-27.75-15.293-30.691-30.762-0.011718-0.070312-0.023437-0.15234-0.035156-0.22266-0.09375-0.49219-0.17578-0.99609-0.24609-1.4883-0.035156-0.23438-0.058593-0.45703-0.082031-0.69141-0.046875-0.36328-0.09375-0.73828-0.12891-1.1133-0.035156-0.32812-0.046875-0.66797-0.070313-0.99609-0.023437-0.29297-0.046874-0.58594-0.058593-0.87891-0.011719-0.35156-0.023438-0.71484-0.023438-1.0664 0-0.30469-0.011719-0.59766-0.011719-0.90234 0-0.22266 0.011719-0.45703 0.011719-0.67969 0.011719-0.375 0.011719-0.75 0.035157-1.125 0.011718-0.25781 0.035156-0.51562 0.046874-0.77344 0.023438-0.33984 0.046876-0.67969 0.082032-1.0078 0.023437-0.26953 0.058594-0.55078 0.09375-0.82031 0.035156-0.32812 0.082031-0.64453 0.12891-0.97266 0.035156-0.26953 0.082031-0.55078 0.12891-0.82031 0.058594-0.31641 0.11719-0.64453 0.17578-0.96094 0.046874-0.26953 0.10547-0.52734 0.15234-0.79688 0.070313-0.33984 0.15234-0.67969 0.23438-1.0195 0.058594-0.23438 0.11719-0.48047 0.17578-0.71484 0.10547-0.42188 0.23437-0.83203 0.35156-1.2422 0.046875-0.15234 0.09375-0.31641 0.14062-0.46875 0.1875-0.58594 0.38672-1.1719 0.59766-1.7578 3.4688-9.457 2.0859-20.051-3.7031-28.348-0.75-1.0781-1.5703-2.0977-2.4375-3.0586-0.35156-0.38672-0.71484-0.76172-1.0781-1.1367-0.058593-0.058593-0.10547-0.10547-0.15234-0.16406-5.7773-5.7305-13.652-9.0469-21.938-9.0469h-94.629c-0.15234 0-0.28125-0.12891-0.28125-0.28125v-94.629c0-10.207-5.0039-19.793-13.395-25.641-5.2734-3.6797-11.473-5.5781-17.719-5.5781-3.6094-0.10547-7.207 0.51562-10.652 1.7812zm362.54 480.49h-94.57c-10.219 0-19.816 5.0156-25.676 13.406-5.7891 8.2969-7.1719 18.891-3.7031 28.348 1.7461 4.7578 2.5312 9.7969 2.3203 14.953-0.80859 20.004-17.121 36.27-37.137 37.02-10.641 0.375-20.695-3.4336-28.324-10.793-7.6406-7.3594-11.848-17.25-11.848-27.855 0-4.5469 0.77344-8.9883 2.3086-13.195 3.4805-9.5859 2.0742-20.273-3.7617-28.617-5.8242-8.3086-15.352-13.266-25.5-13.266h-94.641c-0.15234 0-0.28125-0.12891-0.28125-0.28125v-89.168c7.4414 2.0859 15.129 2.9766 22.98 2.6602 38.227-1.5469 69.293-32.719 70.723-70.957 0.76172-20.262-6.5625-39.457-20.602-54.023-14.051-14.578-32.941-22.605-53.18-22.605-6.7852 0-13.465 0.91406-19.922 2.7188v-89.168c0-0.15234 0.12891-0.28125 0.28125-0.28125h89.168c-0.082032 0.29297-0.15234 0.59766-0.23438 0.89062-0.15234 0.55078-0.29297 1.1016-0.43359 1.6523-0.10547 0.43359-0.19922 0.87891-0.29297 1.3242-0.09375 0.43359-0.19922 0.86719-0.28125 1.3008-0.09375 0.46875-0.17578 0.92578-0.26953 1.3945-0.070313 0.42188-0.15234 0.83203-0.22266 1.2539-0.082031 0.46875-0.15234 0.94922-0.22266 1.418-0.058593 0.42188-0.11719 0.84375-0.17578 1.2656-0.058593 0.46875-0.11719 0.9375-0.16406 1.4062-0.046875 0.44531-0.09375 0.89062-0.12891 1.3359-0.035156 0.44531-0.082031 0.89062-0.11719 1.3477-0.035156 0.52734-0.058594 1.0547-0.09375 1.582-0.023437 0.375-0.046875 0.73828-0.058594 1.1133-0.035156 0.87891-0.046875 1.7578-0.046875 2.6367v0.046875c0 0.99609 0.023438 2.0039 0.058594 3 0 0.10547 0.011719 0.21094 0.023438 0.31641 0.035156 0.69141 0.082031 1.3711 0.12891 2.0625 0.035156 0.49219 0.058594 0.98438 0.10547 1.4766 0.082032 0.91406 0.19922 1.8164 0.30469 2.7188 0.023438 0.21094 0.046875 0.43359 0.082031 0.65625 2.25 16.301 9.8086 31.254 21.891 42.891 12.305 11.859 27.902 18.902 44.66 20.367 0.30469 0.023437 0.60938 0.046874 0.90234 0.070312 0.84375 0.058594 1.6758 0.11719 2.5195 0.15234 0.10547 0 0.21094 0.011718 0.31641 0.023437 0.33984 0.011719 0.67969 0 1.0312 0.011719 0.58594 0.011719 1.1602 0.046875 1.7461 0.046875 0.21094 0 0.43359-0.011719 0.64453-0.011719 0.32812 0 0.65625-0.011718 0.97266-0.023437 0.41016-0.011719 0.82031-0.011719 1.2305-0.023438 0.31641-0.011719 0.63281-0.046875 0.94922-0.058593 0.62109-0.035157 1.2539-0.070313 1.875-0.11719 0.52734-0.035156 1.043-0.082031 1.5703-0.14062 0.76172-0.070313 1.5352-0.15234 2.2969-0.25781 0.30469-0.035156 0.60938-0.082031 0.91406-0.12891 15.281-2.1328 29.461-8.9648 40.816-19.91 12.082-11.637 19.641-26.59 21.891-42.891 0.035156-0.22266 0.058594-0.44531 0.082031-0.66797 0.11719-0.90234 0.22266-1.8047 0.30469-2.707 0.046876-0.49219 0.070313-0.98438 0.10547-1.4883 0.046875-0.67969 0.10547-1.3711 0.12891-2.0508 0-0.10547 0.011718-0.21094 0.023437-0.31641 0.046875-1.0078 0.058594-2.0039 0.058594-3v-0.046875c0-0.87891-0.011719-1.7578-0.046875-2.6367-0.011719-0.36328-0.035156-0.73828-0.058594-1.1016-0.023438-0.52734-0.046875-1.0547-0.09375-1.582-0.035156-0.44531-0.070312-0.89062-0.11719-1.3359-0.035156-0.44531-0.082031-0.89062-0.12891-1.3477-0.046875-0.46875-0.10547-0.9375-0.16406-1.4062-0.058594-0.42188-0.10547-0.84375-0.17578-1.2656-0.070312-0.46875-0.14062-0.94922-0.22266-1.418-0.070312-0.42188-0.14062-0.83203-0.22266-1.2422-0.082031-0.46875-0.17578-0.9375-0.26953-1.4062-0.09375-0.43359-0.1875-0.86719-0.28125-1.2891-0.09375-0.44531-0.19922-0.89062-0.30469-1.3359-0.12891-0.55078-0.28125-1.0898-0.42188-1.6406-0.082031-0.30469-0.15234-0.60938-0.23438-0.90234h89.168c0.15234 0 0.28125 0.12891 0.28125 0.28125v94.641c0 9.5156 4.3594 18.492 11.742 24.363 0.49219 0.38672 0.99609 0.77344 1.5234 1.1367 0.51562 0.36328 1.0547 0.71484 1.5938 1.043 0.66797 0.41016 1.3594 0.78516 2.0625 1.1484 7.6758 3.9375 16.734 4.5703 24.961 1.582 4.2188-1.5352 8.6602-2.3086 13.207-2.3086 10.605 0 20.496 4.207 27.855 11.848 7.3594 7.6289 11.18 17.695 10.793 28.324-0.75 20.016-17.004 36.328-37.02 37.137-5.1562 0.19922-10.195-0.57422-14.953-2.3203-1.1484-0.42188-2.3203-0.77344-3.5039-1.0547-8.4961-2.0156-17.566-0.32813-24.844 4.7578-8.3906 5.8594-13.406 15.457-13.406 25.676v94.57c0.035156 0.14062-0.09375 0.26953-0.24609 0.26953zm450.26-159.05c-0.75 20.016-17.004 36.328-37.02 37.137-5.1562 0.19922-10.195-0.57422-14.953-2.3203-9.4453-3.4688-20.051-2.0859-28.348 3.7031-8.3906 5.8594-13.406 15.457-13.406 25.676v94.57c0 0.15234-0.12891 0.28125-0.28125 0.28125h-89.168c2.0625-7.3711 2.9648-15.012 2.6602-22.793-1.4531-38.238-32.543-69.375-70.77-70.898-20.262-0.78516-39.527 6.4805-54.152 20.531-14.613 14.051-22.664 32.965-22.664 53.238 0 6.7852 0.91406 13.465 2.7188 19.922h-89.168c-0.15234 0-0.28125-0.12891-0.28125-0.28125v-89.168c7.4297 2.0859 15.129 2.9766 22.98 2.6602 11.941-0.48047 23.191-3.8555 33.059-9.4453 21.691-12.281 36.68-35.227 37.664-61.512 0.76172-20.262-6.5625-39.457-20.602-54.023-14.039-14.578-32.93-22.605-53.168-22.605-6.7852 0-13.465 0.91406-19.922 2.7188v-89.168c0-0.15234 0.12891-0.28125 0.28125-0.28125h94.641c1.2773 0 2.5312-0.082031 3.7852-0.23438 0.17578-0.023437 0.35156-0.058593 0.53906-0.082031 0.44531-0.058594 0.87891-0.11719 1.3242-0.19922 0.43359-0.082031 0.85547-0.17578 1.2773-0.26953 0.17578-0.046875 0.36328-0.070312 0.53906-0.11719 7.2891-1.793 13.793-6.1875 18.188-12.48 5.7891-8.2969 7.1602-18.891 3.6797-28.336-0.21094-0.58594-0.41016-1.1719-0.59766-1.7578-0.046875-0.14062-0.082031-0.28125-0.12891-0.43359-0.12891-0.42188-0.25781-0.85547-0.36328-1.2773-0.058594-0.23438-0.11719-0.48047-0.17578-0.71484-0.082031-0.33984-0.16406-0.67969-0.23438-1.0195-0.058593-0.25781-0.10547-0.52734-0.15234-0.78516-0.058594-0.32812-0.11719-0.64453-0.17578-0.97266-0.046875-0.26953-0.082031-0.53906-0.11719-0.80859-0.046875-0.32812-0.09375-0.65625-0.12891-0.98438-0.035156-0.25781-0.058593-0.52734-0.082031-0.79688-0.035156-0.33984-0.058593-0.69141-0.082031-1.043-0.011719-0.24609-0.035156-0.50391-0.046875-0.75-0.023437-0.375-0.035156-0.75-0.035156-1.1367 0-0.22266-0.011719-0.44531-0.011719-0.66797 0-0.31641 0.011719-0.64453 0.011719-0.96094 0.011719-0.33984 0.011719-0.67969 0.023437-1.0078 0.011719-0.31641 0.035156-0.62109 0.058594-0.92578 0.023438-0.31641 0.046875-0.64453 0.070312-0.96094 0.035157-0.36328 0.082032-0.73828 0.11719-1.1016 0.023438-0.23438 0.058594-0.46875 0.082031-0.69141 0.070313-0.48047 0.14062-0.96094 0.23438-1.4297 0.011719-0.09375 0.035156-0.1875 0.046875-0.28125 2.918-15.492 15.188-27.82 30.656-30.82 0.16406-0.035156 0.31641-0.058593 0.48047-0.09375 0.39844-0.070312 0.79688-0.12891 1.1953-0.19922 0.28125-0.035156 0.5625-0.082031 0.84375-0.11719 0.30469-0.035156 0.62109-0.070313 0.92578-0.10547 0.35156-0.035156 0.71484-0.070312 1.0664-0.09375 0.26953-0.023437 0.55078-0.035156 0.82031-0.046875 0.35156-0.023437 0.70313-0.023437 1.0547-0.035156 0.32812-0.011719 0.65625-0.011719 0.97266-0.011719s0.63281 0.011719 0.96094 0.011719c0.36328 0.011719 0.72656 0.023437 1.0781 0.035156 0.26953 0.011719 0.52734 0.035157 0.78516 0.046875 0.36328 0.023438 0.73828 0.058594 1.1016 0.09375 0.29297 0.035156 0.58594 0.058594 0.89062 0.10547 0.29297 0.035156 0.59766 0.082031 0.89063 0.11719 0.38672 0.058594 0.76172 0.11719 1.1484 0.1875 0.17578 0.035157 0.35156 0.070313 0.52734 0.09375 0.50391 0.09375 1.0078 0.19922 1.5117 0.31641 0.011718 0 0.023437 0.011719 0.046874 0.011719 14.719 3.5039 26.273 15.539 29.086 30.504 0.011719 0.082031 0.023438 0.16406 0.046875 0.24609 0.082031 0.48047 0.16406 0.97266 0.23438 1.4531 0.035156 0.22266 0.058594 0.44531 0.082031 0.66797 0.046875 0.375 0.09375 0.75 0.12891 1.125 0.023437 0.31641 0.046874 0.63281 0.070312 0.9375 0.023438 0.31641 0.046875 0.62109 0.058594 0.9375 0.011718 0.32812 0.023437 0.66797 0.023437 1.0078 0 0.31641 0.011719 0.64453 0.011719 0.96094 0 0.22266-0.011719 0.44531-0.011719 0.66797-0.011719 0.375-0.023437 0.75-0.035156 1.125-0.011719 0.24609-0.035156 0.50391-0.046875 0.75-0.023438 0.35156-0.046875 0.69141-0.082031 1.0312-0.023438 0.26953-0.058594 0.52734-0.082031 0.78516-0.035157 0.32812-0.082032 0.65625-0.12891 0.99609-0.035156 0.26953-0.082031 0.52734-0.11719 0.79688-0.058594 0.33984-0.11719 0.66797-0.1875 0.99609-0.046875 0.24609-0.09375 0.50391-0.15234 0.75-0.082031 0.36328-0.16406 0.72656-0.25781 1.0898-0.046876 0.21094-0.10547 0.42188-0.15234 0.64453-0.14062 0.52734-0.28125 1.043-0.44531 1.5586-0.011719 0.046874-0.023437 0.09375-0.046875 0.14062-0.1875 0.59766-0.38672 1.1953-0.60938 1.7812-3.4805 9.4453-2.0977 20.039 3.6914 28.336 4.3945 6.293 10.898 10.688 18.188 12.48 0.12891 0.035156 0.26953 0.058593 0.39844 0.082031 0.46875 0.10547 0.9375 0.22266 1.418 0.30469 0.41016 0.070312 0.82031 0.12891 1.2188 0.1875 0.21094 0.035156 0.42188 0.070312 0.63281 0.09375 1.2422 0.15234 2.5078 0.23437 3.7852 0.23437h94.641c0.15234 0 0.28125 0.12891 0.28125 0.28125v94.641c0 10.148 4.957 19.676 13.266 25.5 8.332 5.8359 19.031 7.2422 28.605 3.7617 4.2188-1.5352 8.6602-2.3086 13.207-2.3086 10.605 0 20.496 4.207 27.855 11.848 7.2891 7.6992 11.121 17.766 10.723 28.395z" fill="#222845"/>
</svg>
