<?xml version="1.0" encoding="UTF-8"?>
<svg width="1200pt" height="1200pt" version="1.1" viewBox="0 0 1200 1200" xmlns="http://www.w3.org/2000/svg">
 <path d="m1067.6 275.26-142.82-142.82c-26.531-26.531-69.703-26.531-96.234 0-86.297 86.297-462.94 462.94-602.9 602.9-20.578 20.578-25.125 51.141-13.781 76.219l-94.453 202.22c-9.1875 19.688-5.0625 43.219 10.312 58.594 9.9375 9.8906 23.25 15.141 36.703 15.141 7.4062 0 14.859-1.5938 21.844-4.8281l202.26-94.453c8.9062 4.0312 18.422 6.0938 28.031 6.0938 17.438 0 34.875-6.6562 48.141-19.922l602.9-602.9c26.531-26.531 26.531-69.703 0-96.234zm-217.36-121.08c14.391-14.391 38.578-14.203 52.781 0l142.82 142.82c14.531 14.531 14.531 38.25 0 52.781l-76.078 76.078-195.61-195.61zm-309.52 700.74-195.61-195.61 56.016-56.016c66.984 47.953 171.28 0.98438 233.81-61.547 59.812-59.812 110.53-165.32 61.5-233.76l55.969-55.969 195.61 195.61zm72.469-334.87c-48.516 48.516-135.37 93.844-189.98 61.172l251.06-251.06c32.625 54.516-12.047 140.81-61.125 189.89zm-439.97 534.84c-8.0156 3.75-17.578 2.0625-23.812-4.2188-6.2344-6.2344-7.9219-15.844-4.1719-23.859l87.703-187.87 128.16 128.16-187.87 87.703zm217.03-102.05-143.02-143.06c-14.438-14.578-14.391-38.156 0.09375-52.688l76.078-76.078 195.61 195.61-76.078 76.078c-14.531 14.531-38.109 14.531-52.688 0.09375z" fill="#b8c1ec"/>
</svg>
