<?xml version="1.0" encoding="UTF-8"?>
<svg width="1200pt" height="1200pt" version="1.1" viewBox="0 0 1200 1200" xmlns="http://www.w3.org/2000/svg">
 <path d="m600 144.6c-151.92 0-274.92 204-274.92 456 0 106.92 10.199 205.2 47.398 282.84 50.402 104.52 140.16 172.56 227.52 172.56s176.64-66.961 227.04-171.6c37.559-77.762 48-176.4 48-283.8-0.11719-252.6-123.12-456-275.04-456zm180 468c2.5742-5.6211 7.6562-9.6953 13.699-10.984 6.0469-1.293 12.348 0.35156 16.992 4.4336 4.6445 4.0781 7.0859 10.113 6.5859 16.277-0.49609 6.1602-3.8828 11.723-9.1211 15-5.2422 3.2812-11.727 3.8867-17.484 1.6406-5.7578-2.25-10.117-7.0859-11.75-13.047l-162.6-12.48 144 168c6.0859-2.1094 12.82-1.0664 17.984 2.7852 5.1641 3.8516 8.0859 10.008 7.7969 16.445-0.28516 6.4336-3.7383 12.309-9.2227 15.688-4.9375 3.0391-10.977 3.6992-16.453 1.8008-5.4766-1.8984-9.8086-6.1562-11.809-11.598-1.9961-5.4414-1.4453-11.492 1.5039-16.484l-142.44-166.08-24 312c4.5117 2.0469 8.0742 5.7383 9.957 10.32 1.8789 4.5859 1.9414 9.7148 0.16797 14.34-1.7734 4.6289-5.2461 8.4023-9.7109 10.555-4.4609 2.1523-9.5781 2.5195-14.305 1.0234-4.7227-1.4922-8.6992-4.7344-11.113-9.0625-2.4141-4.3242-3.0859-9.4102-1.875-14.215 0.79297-3.3281 2.4727-6.3789 4.8594-8.832 2.3867-2.4492 5.3945-4.207 8.6992-5.0898l24-313.8-169.2 144.96c2.1445 5.8008 1.418 12.27-1.9531 17.449-3.3711 5.1836-8.9922 8.4648-15.164 8.8555-6.168 0.38672-12.16-2.1641-16.156-6.8789-3.9961-4.7188-5.5234-11.047-4.125-17.066 1.3984-6.0234 5.5586-11.027 11.227-13.504 5.6641-2.4727 12.164-2.1211 17.531 0.94531l169.56-144.84-163.8-12.84c-2.5703 5.5742-7.6211 9.6094-13.629 10.883-6.0039 1.2734-12.258-0.36719-16.867-4.4219s-7.0352-10.047-6.5391-16.168c0.49609-6.1172 3.8555-11.645 9.0586-14.902 5.2031-3.2578 11.637-3.8711 17.359-1.6484 5.7227 2.2266 10.059 7.0195 11.695 12.938l161.88 12.719-145.44-170.28c-5.7852 2.1914-12.27 1.5195-17.48-1.8164-5.2109-3.3359-8.5352-8.9414-8.9688-15.113-0.42969-6.1719 2.0859-12.188 6.7852-16.211 4.6992-4.0273 11.023-5.5938 17.059-4.2266 6.0352 1.3711 11.062 5.5156 13.562 11.176s2.1758 12.168-0.87891 17.551l147 172.08 24.723-314.88c-4.5352-1.9297-8.1602-5.5234-10.133-10.035-1.9727-4.5156-2.1445-9.6133-0.48438-14.254 1.6602-4.6367 5.0312-8.4688 9.4219-10.703 4.3906-2.2344 9.4727-2.707 14.199-1.3203 4.7305 1.3828 8.75 4.5234 11.238 8.7773 2.4922 4.25 3.2617 9.293 2.1562 14.094-1.707 6.5039-6.7266 11.617-13.199 13.441l-24 313.92 169.2-144.36c-1.6953-4.6367-1.5625-9.7461 0.375-14.293 1.9336-4.543 5.5273-8.1797 10.047-10.168 4.5195-1.9922 9.6289-2.1875 14.285-0.55078 4.6602 1.6406 8.5195 4.9883 10.801 9.3711 2.2773 4.3828 2.8008 9.4688 1.4688 14.223-1.3359 4.7539-4.4297 8.8242-8.6562 11.379-2.9883 1.7383-6.3828 2.6562-9.8398 2.6562s-6.8516-0.91797-9.8398-2.6562l-169.56 144.48z" fill="#ff7800"/>
</svg>
