<?xml version="1.0" encoding="UTF-8"?>
<svg width="1200pt" height="1200pt" version="1.1" viewBox="0 0 1200 1200" xmlns="http://www.w3.org/2000/svg">
 <path d="m136.8 913.2c-22.801 0-40.801-18-40.801-40.801v-468h888v240l66 18v-456c0-58.801-48-106.8-106.8-106.8l-806.4 0.003906c-58.801 0-106.8 48-106.8 106.8v664.8c0 58.801 48 106.8 106.8 106.8l595.2-0.003906-18-66h-577.2zm597.6-693.6h174c18 0 32.398 14.398 32.398 32.398s-14.398 32.398-32.398 32.398h-174c-18 0-32.398-14.398-32.398-32.398-1.1992-18 14.398-32.398 32.398-32.398zm-363.6 0h6c18 0 32.398 14.398 32.398 32.398s-14.398 32.398-32.398 32.398h-6c-18 0-32.398-14.398-32.398-32.398-1.2031-18 13.199-32.398 32.398-32.398zm-99.602 0h6c18 0 32.398 14.398 32.398 32.398s-14.398 32.398-32.398 32.398h-6c-18 0-32.398-14.398-32.398-32.398-1.1992-18 14.398-32.398 32.398-32.398zm-99.598 0h6c18 0 32.398 14.398 32.398 32.398s-14.398 32.398-32.398 32.398h-6c-18 0-32.398-14.398-32.398-32.398-1.2031-18 14.398-32.398 32.398-32.398z" fill="#222845"/>
 <path d="m1159.2 987.6-134.4-134.4 67.199-50.398c25.199-18 16.801-57.602-13.199-66l-308.4-82.801c-27.602-7.1992-52.801 18-45.602 45.602l82.801 308.4c8.3984 30 46.801 37.199 66 13.199l50.398-67.199 134.4 134.4c14.398 14.398 38.398 14.398 52.801 0l49.199-49.199c13.203-13.199 13.203-37.199-1.1992-51.598z" fill="#222845"/>
 <path d="m234 560.4h182.4c18 0 32.398-14.398 32.398-32.398s-14.398-32.398-32.398-32.398h-182.4c-18 0-32.398 14.398-32.398 32.398s14.398 32.398 32.398 32.398z" fill="#222845"/>
 <path d="m613.2 658.8c0-18-14.398-32.398-32.398-32.398l-346.8-0.003906c-18 0-32.398 14.398-32.398 32.398s14.398 32.398 32.398 32.398h346.8c16.801 0.003907 32.398-14.395 32.398-32.395z" fill="#222845"/>
 <path d="m234 757.2c-18 0-32.398 14.398-32.398 32.398s14.398 32.398 32.398 32.398h253.2c18 0 32.398-14.398 32.398-32.398s-14.398-32.398-32.398-32.398z" fill="#222845"/>
</svg>
