<?xml version="1.0" encoding="UTF-8"?>
<svg width="1200pt" height="1200pt" version="1.1" viewBox="0 0 1200 1200" xmlns="http://www.w3.org/2000/svg">
 <path d="m904.44 577.32c-5.6562-0.88672-11.445 0.16016-16.43 2.9688-4.9883 2.8086-8.8789 7.2148-11.051 12.512h-249.36l176.4-176.28c1.6172 0.88672 3.3555 1.5352 5.1602 1.9219 6.7539 1.1172 13.672-0.49219 19.238-4.4766 5.5625-3.9844 9.3164-10.016 10.434-16.77 1.1172-6.7539-0.49609-13.672-4.4844-19.234-3.9844-5.5664-10.02-9.3164-16.773-10.43-6.7539-1.1133-13.672 0.5-19.234 4.4922-5.5586 3.9883-9.3086 10.023-10.418 16.777-0.66016 4.6484 0.003906 9.3906 1.918 13.68l-176.28 176.28v-480c7.75-3.3711 13.289-10.402 14.762-18.723 0.86719-8.8164-2.8477-17.457-9.8438-22.895-6.9922-5.4375-16.285-6.9062-24.613-3.8906-8.332 3.0156-14.531 10.094-16.422 18.746-0.91406 5.7969 0.21484 11.73 3.1914 16.785 2.9766 5.0547 7.6172 8.9219 13.129 10.934v479.04l-176.4-176.28c0.87891-1.6367 1.5625-3.3672 2.0391-5.1602 1.293-6.8164-0.21875-13.867-4.1836-19.555-3.9688-5.6914-10.062-9.543-16.902-10.691-6.8438-1.1445-13.859 0.51172-19.465 4.6016-5.6055 4.0859-9.3281 10.258-10.328 17.125-1.1445 6.7305 0.44141 13.645 4.4023 19.207 3.9648 5.5625 9.9805 9.3164 16.719 10.434 4.6484 0.71484 9.4062 0.046875 13.68-1.9219l176.28 176.28h-256.56c-3.3008-8.0781-10.492-13.918-19.078-15.48-6.8633-1.3789-13.988 0.085938-19.746 4.0625-5.7617 3.9766-9.6562 10.125-10.797 17.027-1.1406 6.9062 0.57422 13.977 4.75 19.594 4.1758 5.6172 10.453 9.2969 17.391 10.195 5.6562 0.91016 11.453-0.125 16.445-2.9375 4.9922-2.8125 8.8828-7.2344 11.035-12.543h256.56l-176.28 176.28c-1.6172-0.88672-3.3555-1.5312-5.1602-1.9219-8.9922-1.3086-18.012 2.207-23.742 9.2617-5.7305 7.0508-7.332 16.598-4.2109 25.133 3.125 8.5352 10.504 14.797 19.434 16.488 6.8477 1.2539 13.914-0.28906 19.617-4.2773 5.7031-3.9922 9.5742-10.102 10.742-16.965 0.58984-4.6484-0.070312-9.3711-1.9219-13.68l175.68-176.28v474.12c-8.3711 3.5469-14.227 11.273-15.383 20.289-1.1523 9.0195 2.5703 17.969 9.7773 23.512 7.207 5.5391 16.812 6.8359 25.23 3.4023 8.418-3.4336 14.379-11.082 15.652-20.082 0.91016-5.6562-0.125-11.453-2.9375-16.445-2.8125-4.9922-7.2344-8.8828-12.543-11.035v-473.76l176.4 176.28 0.003907-0.003907c-0.83594 1.6562-1.5195 3.3828-2.0391 5.1602-1.1523 6.7539 0.42969 13.688 4.3945 19.273 3.9648 5.5859 9.9883 9.3633 16.746 10.504 6.7539 1.1367 13.684-0.45703 19.262-4.4297 5.5781-3.9766 9.3477-10.008 10.477-16.762 1.1289-6.7578-0.47656-13.684-4.4609-19.258-3.9844-5.5703-10.02-9.332-16.781-10.449-4.6484-0.63672-9.3828 0.027344-13.68 1.9219l-176.28-176.28h249.36c3.2617 8.1094 10.473 13.961 19.078 15.48 8.9297 1.1562 17.816-2.4258 23.449-9.4492 5.6289-7.0273 7.1914-16.48 4.1172-24.945-3.0742-8.4609-10.34-14.711-19.164-16.484z" fill="#ff7800"/>
</svg>
