<?xml version="1.0" encoding="UTF-8"?>
<svg width="1200pt" height="1200pt" version="1.1" viewBox="0 0 1200 1200" xmlns="http://www.w3.org/2000/svg">
 <path d="m994.8 275.28c-13.465 0-26.375 5.3477-35.895 14.867-9.5195 9.5195-14.867 22.43-14.867 35.891v4.1992l-333.72 214.44 77.52-341.52c14.738-4.0117 26.906-14.414 33.152-28.355 6.2461-13.938 5.918-29.945-0.89844-43.613-6.8164-13.672-19.402-23.566-34.297-26.965-14.891-3.3984-30.523 0.058594-42.594 9.418-12.074 9.3594-19.312 23.637-19.73 38.906-0.42188 15.27 6.0273 29.922 17.566 39.93l-77.039 337.2-51.84-110.52c9.1406-12.188 12.34-27.832 8.7148-42.633-3.625-14.797-13.691-27.191-27.43-33.777-13.742-6.5859-29.707-6.6641-43.516-0.21875-13.805 6.4453-23.996 18.738-27.77 33.496-3.7734 14.762-0.73438 30.438 8.2812 42.719 9.0195 12.281 23.066 19.875 38.277 20.695l57.723 122.16-232.32-72.723c-2.3555-12.711-9.4688-24.043-19.891-31.688-10.422-7.6445-23.367-11.027-36.199-9.4531-12.828 1.5703-24.578 7.9805-32.844 17.918-8.2656 9.9336-12.434 22.652-11.645 35.555 0.78516 12.902 6.4648 25.016 15.879 33.875 9.4141 8.8594 21.852 13.793 34.777 13.793 13.477 0.12891 26.441-5.1406 36-14.641l232.8 72.961-283.32 181.92c-7.3164-4.1836-15.57-6.4531-24-6.6016-13.5-0.03125-26.461 5.3047-36.027 14.832-9.5664 9.5273-14.949 22.469-14.973 35.969-0.019532 13.5 5.3242 26.457 14.859 36.016 9.5352 9.5586 22.48 14.934 35.98 14.945 13.5 0.007812 26.453-5.3477 36.004-14.891 9.5508-9.543 14.918-22.488 14.918-35.992v-3.9609l281.04-181.44-79.078 348h-0.003906c-14.637 4.0547-26.691 14.453-32.848 28.34-6.1562 13.887-5.7734 29.801 1.0508 43.371 6.8203 13.574 19.363 23.379 34.18 26.723s30.352-0.125 42.344-9.4531c11.988-9.3281 19.168-23.535 19.57-38.719 0.40234-15.188-6.0156-29.754-17.496-39.703l75.121-330.84 100.2 213.48c-9.1406 12.191-12.34 27.832-8.7148 42.633 3.625 14.797 13.691 27.191 27.43 33.777 13.742 6.5859 29.707 6.6641 43.516 0.21875 13.805-6.4453 23.996-18.734 27.77-33.496 3.7734-14.762 0.73438-30.438-8.2812-42.719-9.0195-12.281-23.062-19.875-38.277-20.691l-108-229.8 227.16 71.16c2.875 14.91 12.281 27.75 25.629 34.996 13.352 7.2422 29.242 8.1289 43.312 2.4141s24.844-17.434 29.359-31.934c4.5195-14.5 2.3047-30.262-6.0312-42.957-8.3359-12.695-21.918-20.992-37.02-22.609-15.102-1.6211-30.133 3.6094-40.973 14.25l-232.8-72.961 345.72-222h0.003906c13.781 7.6328 30.324 8.4336 44.781 2.1719 14.453-6.2656 25.18-18.887 29.031-34.164 3.8516-15.273 0.39453-31.473-9.3594-43.844-9.7539-12.371-24.699-19.508-40.453-19.324z" fill="#ff7800"/>
</svg>
