<?xml version="1.0" encoding="UTF-8"?>
<svg width="1200pt" height="1200pt" version="1.1" viewBox="0 0 1200 1200" xmlns="http://www.w3.org/2000/svg">
 <path d="m600 267.49c37.621 0 68.184 15.953 93.047 35.66 1.5781-0.47656 2.8477-1.8281 4.7227-2.3633 6.6797-1.9023 14.77-3.1836 23.379-3.0703 57.359 0.76172 104.29 46.562 105.33 103.91 39.828 16.43 68.25 54.566 68.25 100.13 0 59.613-46.211 107.44-106.27 105.8-3.5-0.097656-7.2148-0.003906-11.098 0-17.945 58.52-78.492 98.242-147.13 98.242-36.664 0-70.168-13.707-93.754-35.66-9.0352 3.2773-18.398 5.4375-27.16 5.4336-42.23 0-79.504-25.113-97.062-61.402-9.3945 4.8633-19.68 8.5-31.41 8.5-41.555 0-75.57-34.012-75.57-75.57 0-28.707 17.336-53.379 40.621-67.07-1.6328-4.9141-2.793-10.25-2.8359-16.059-0.43359-58.391 47.457-106.88 106.04-105.8 1.832 0.03125 3.1094 0.015625 4.4883 0 20.926-54.855 80.777-90.684 146.42-90.684zm0 30.227c-58.305 0-109.26 34.285-121.39 79.352-0.84766 3.2852-2.7773 6.1875-5.4766 8.2461-2.6992 2.0547-6.0117 3.1445-9.4023 3.0898-5.5078-0.12109-8.0391 0.12891-15.113 0-41.574-0.76953-75.648 33.559-75.336 75.336 0.03125 4.3867 2.3672 10.371 4.957 14.168 2.6914 3.9297 3.3711 8.8984 1.8359 13.402-1.5352 4.5078-5.1016 8.0312-9.6289 9.5039-17.418 5.7305-34.949 27.477-34.949 46.289 0 25.223 20.121 45.344 45.34 45.344 12.129 0 18.836-3.3516 27.633-11.336 3.9414-3.5586 9.457-4.7891 14.535-3.2422 5.082 1.5469 8.9766 5.6484 10.262 10.797 8.1016 32.035 40.48 56.68 76.043 56.68 6.2656 0.003906 16.91-2.6367 22.906-5.9023 3.0234-1.6602 6.5195-2.2344 9.9141-1.6328 3.3906 0.60156 6.4766 2.3438 8.7422 4.9375 16.691 18.945 46.719 32.828 79.352 32.828 61.137 0 111.84-37.262 121.15-85.965 0.64453-3.3789 2.4219-6.4414 5.043-8.6719 2.6172-2.2344 5.9219-3.5078 9.3594-3.6055 7.0742-0.19141 16.059-0.20703 23.617 0 44.242 1.2031 75.102-30.844 75.102-75.574 0-36.383-24.086-66.746-57.152-76.277-3.2383-0.94922-6.0664-2.9492-8.0352-5.6875s-2.9648-6.0586-2.8281-9.4297c-0.03125 0.78906 0-5.1484 0-6.8477 0-41.914-33.652-75.012-75.809-75.57-4.7461-0.0625-10.355 0.66797-14.641 1.8867-3.2148 0.91797-6.2734 2.9531-6.3789 2.8359-2.7852 2.0156-6.1758 3.0195-9.6094 2.8477-3.4375-0.17188-6.7109-1.5078-9.2812-3.793-22.934-19.715-48.617-34.008-80.766-34.008zm-151.14 423.2c17.523 0 33.754 4.7461 46.289 13.699 12.531 8.9531 21.727 23.051 21.727 39.203s-9.1953 30.016-21.727 38.965c-12.535 8.9531-28.766 13.934-46.289 13.934-17.523 0-33.754-4.9805-46.289-13.934-12.531-8.9492-21.727-22.812-21.727-38.965s9.1953-30.25 21.727-39.203c12.535-8.9531 28.766-13.699 46.289-13.699zm0 30.23c-11.691 0-21.961 3.5391-28.574 8.2656-6.6172 4.7227-9.2109 9.6875-9.2109 14.406 0 4.7148 2.5938 9.6797 9.2109 14.406 6.6133 4.7227 16.883 8.2656 28.574 8.2656 11.691 0 21.961-3.543 28.574-8.2656 6.6172-4.7266 9.2109-9.6914 9.2109-14.406 0-4.7188-2.5938-9.6836-9.2109-14.406-6.6133-4.7266-16.883-8.2656-28.574-8.2656zm-90.688 105.8c11.414 0 22.043 3.3672 30.465 9.6836 8.4258 6.3164 14.879 16.395 14.879 28.102s-6.4531 21.785-14.879 28.102c-8.4219 6.3164-19.055 9.6836-30.465 9.6836-11.41 0-22.039-3.3672-30.465-9.6836-8.4219-6.3164-14.875-16.395-14.875-28.102s6.4531-21.785 14.875-28.102c8.4258-6.3164 19.055-9.6836 30.465-9.6836zm0 30.227c-5.2812 0-9.7617 1.6562-12.277 3.543-2.5195 1.8906-2.8359 3.1992-2.8359 4.0156 0 0.81641 0.31641 1.8906 2.8359 3.7773 2.5156 1.8906 6.9961 3.7812 12.277 3.7812 5.2852 0 9.7656-1.8906 12.281-3.7812 2.5195-1.8867 2.8359-2.9609 2.8359-3.7773 0-0.81641-0.31641-2.125-2.8359-4.0156-2.5156-1.8867-6.9961-3.543-12.281-3.543z" fill="#222845"/>
</svg>
