<svg height='300px' width='300px'  fill="#000000" xmlns="http://www.w3.org/2000/svg" xmlns:xlink="http://www.w3.org/1999/xlink" version="1.1" x="0px" y="0px" viewBox="0 0 512 512" style="enable-background:new 0 0 512 512;" xml:space="preserve"><g><path d="M303.883,84.576c-101.38,0-180.797,35.743-180.797,81.379v41.675l-91.131,17.79c-0.047,0.009-0.07,0.058-0.116,0.069   c-1.111,0.241-2.108,0.854-2.922,1.735c-0.114,0.123-0.243,0.195-0.346,0.327c-0.056,0.072-0.138,0.105-0.19,0.18   c-0.644,0.908-0.883,1.937-0.942,2.971c-0.008,0.123-0.119,0.206-0.119,0.331v104.416c0,1.536,0.628,3.009,1.717,4.084l22.8,22.354   c0.185,0.18,0.421,0.255,0.621,0.405c0.309,0.232,0.605,0.456,0.948,0.619c0.332,0.158,0.67,0.248,1.022,0.339   c0.351,0.09,0.685,0.178,1.046,0.201c0.126,0.008,0.243,0.071,0.37,0.071c0.244,0,0.476-0.111,0.719-0.142   c0.362-0.046,0.709-0.092,1.061-0.209c0.355-0.117,0.671-0.301,1.003-0.49c0.232-0.131,0.49-0.18,0.708-0.346   c2.457-1.892,5.599-2.932,8.838-2.932c7.4,0,13.404,5.292,13.404,11.798c0,2.974-1.271,5.822-3.588,8.021   c-0.025,0.024-0.033,0.057-0.058,0.081c-0.029,0.028-0.068,0.037-0.096,0.065c-0.257,0.261-0.377,0.587-0.573,0.88   c-0.211,0.313-0.469,0.598-0.611,0.939c-0.138,0.332-0.159,0.682-0.231,1.029c-0.079,0.374-0.203,0.734-0.206,1.114   c-0.003,0.343,0.107,0.667,0.166,1.005c0.065,0.386,0.087,0.771,0.233,1.141c0.129,0.326,0.371,0.6,0.562,0.903   c0.195,0.309,0.317,0.65,0.577,0.926c0.027,0.029,0.065,0.037,0.093,0.065c0.026,0.026,0.034,0.063,0.06,0.089l39.094,38.333   c0.252,0.245,0.577,0.374,0.865,0.566c0.317,0.215,0.597,0.476,0.955,0.626c0.689,0.285,1.429,0.442,2.188,0.442   c0.042,0,0.098,0,0.14,0c0.388-0.009,0.741-0.168,1.113-0.253c0.345-0.079,0.71-0.095,1.028-0.234   c0.296-0.128,0.527-0.36,0.798-0.537c0.358-0.235,0.733-0.436,1.029-0.743c0.028-0.029,0.068-0.039,0.095-0.069l22.116-23.931   c0.2-0.216,0.281-0.488,0.441-0.725c0.153-0.23,0.304-0.446,0.42-0.692c0.231-0.477,0.372-0.96,0.462-1.472   c0.031-0.179,0.067-0.346,0.08-0.526c0.049-0.588-0.006-1.153-0.138-1.73c-0.031-0.127-0.05-0.25-0.088-0.375   c-0.183-0.607-0.477-1.155-0.864-1.684c-0.046-0.063-0.055-0.141-0.104-0.202c-2.262-2.834-3.449-6.255-3.449-9.885   c0-8.747,7.107-15.861,15.861-15.861c3.183,0,6.241,0.935,8.866,2.709c0.894,0.608,1.901,0.826,2.912,0.874   c0.107,0.006,0.192,0.117,0.299,0.117c0.194,0,0.374-0.097,0.567-0.116c0.347-0.036,0.672-0.106,1.008-0.205   c0.394-0.113,0.757-0.254,1.123-0.453c0.303-0.165,0.565-0.369,0.838-0.591c0.216-0.174,0.473-0.262,0.667-0.471l52.275-56.575   c1.005-1.082,1.55-2.52,1.522-3.993l-0.118-5.988l5.759-0.261v64.248c0,0.402,0.151,0.756,0.23,1.135   c-0.033,0.14-0.123,0.25-0.147,0.394c-0.517,3.114,1.592,6.06,4.705,6.569c20.259,3.344,41.593,5.04,63.43,5.04   c85.756,0,160.984-26.605,178.884-63.305c1.075-2.227,1.62-4.719,1.62-7.421V170.324c0-0.207-0.096-0.382-0.118-0.584   c0.124-1.264,0.411-2.506,0.411-3.786C484.68,120.319,405.263,84.576,303.883,84.576z M303.883,96.011   c91.802,0,169.348,32.029,169.348,69.944s-77.546,69.951-169.348,69.951c-17.523,0-34.71-1.124-51.255-3.344l55.542-62.816   c1.494-1.689,1.857-4.091,0.921-6.143c-0.921-2.045-2.96-3.365-5.208-3.365H135.122C142.438,124.877,216.745,96.011,303.883,96.011   z M204.422,203.407c-14.365,14.104-35.098,34.459-36.153,35.486c-2.248,2.185-2.304,5.773-0.154,8.042   c1.759,1.836,2.709,4.245,2.709,6.793c0,5.431-4.412,9.857-9.843,9.857c-2.611,0-5.068-1.012-6.939-2.848   c-2.22-2.185-5.836-2.178-8.056,0.035c-0.572,0.572-18.039,17.711-25.579,25.111l-73.145-51.796l82.639-16.137L204.422,203.407z    M68.173,347.966c-3.981,0-7.741,1.192-11.25,2.881l-18.154-17.8v-90.949l76.513,54.173v111.806L89.56,382.859   c2.204-3.516,3.466-7.487,3.466-11.66C93.026,358.388,81.87,347.966,68.173,347.966z M170.644,359.55   c-3.387-1.462-6.942-2.481-10.697-2.481c-15.051,0-27.31,12.245-27.31,27.296c0,4.443,1.44,8.647,3.493,12.549l-9.399,10.174   V295.709c4.512-4.43,17.448-17.127,23.833-23.398c3.141,1.766,6.716,2.709,10.416,2.709c11.742,0,21.292-9.55,21.292-21.292   c0-3.56-0.88-7.002-2.527-10.067c7.596-7.451,25.637-25.163,36.819-36.14l1.968,100.199L170.644,359.55z M229.681,292.378   l-1.934-98.345c-0.042-1.689-0.824-3.274-2.136-4.335c-1.312-1.061-3.03-1.487-4.677-1.166l-51.144,9.982   c0.004-0.127,0.072-0.231,0.072-0.359c0-5.769-4.676-10.445-10.445-10.445c-5.769,0-10.445,4.676-10.445,10.445   c0,1.518,0.356,2.937,0.938,4.238l-15.374,3.001v-33.722h156.656l-54.104,61.196c-0.112,0.127-0.116,0.304-0.216,0.438   c-0.41,0.551-0.71,1.154-0.901,1.831c-0.086,0.302-0.145,0.577-0.18,0.888c-0.024,0.216-0.127,0.405-0.127,0.627v55.454   L229.681,292.378z M472.938,310.212c0,0.97-0.154,1.808-0.461,2.443c-15.819,32.406-88.297,56.847-168.594,56.847   c-19.526,0-38.541-1.557-56.77-4.306V243.109c18.3,2.669,37.286,4.231,56.77,4.231c78.413,0,143.504-21.43,169.054-52.236V310.212z   "></path><path d="M199.729,255.664c-7.533,0-13.638,6.106-13.638,13.638c0,7.532,6.106,13.638,13.638,13.638   c7.532,0,13.638-6.106,13.638-13.638C213.366,261.77,207.261,255.664,199.729,255.664z"></path><path d="M250.485,191.764c5.028,0,9.104-2.624,9.104-5.861c0-3.237-4.076-5.861-9.104-5.861c-5.027,0-9.103,2.624-9.103,5.861   C241.382,189.14,245.458,191.764,250.485,191.764z"></path><path d="M153.691,326.992c-6.186,0-11.2,4.076-11.2,9.103c0,5.028,5.014,9.104,11.2,9.104c6.185,0,11.2-4.076,11.2-9.104   C164.891,331.068,159.876,326.992,153.691,326.992z"></path><circle cx="99.285" cy="338.192" r="11.2"></circle><circle cx="75.383" cy="319.8" r="12.701"></circle><path d="M172.192,286.783c-9.383,0-17.034,7.637-17.034,17.034c0,9.39,7.651,17.027,17.034,17.027   c9.397,0,17.048-7.637,17.048-17.027C189.24,294.421,181.588,286.783,172.192,286.783z M172.192,309.409   c-3.086,0-5.585-2.506-5.585-5.592c0-3.086,2.499-5.599,5.585-5.599s5.599,2.513,5.599,5.599   C177.791,306.903,175.277,309.409,172.192,309.409z"></path><path d="M75.001,280.312c0-8.482-6.911-15.386-15.386-15.386c-8.489,0-15.4,6.904-15.4,15.386c0,8.489,6.911,15.393,15.4,15.393   C68.09,295.705,75.001,288.801,75.001,280.312z M55.663,280.312c0-2.178,1.773-3.951,3.951-3.951s3.937,1.773,3.937,3.951   C63.552,284.682,55.663,284.682,55.663,280.312z"></path></g></svg>