<svg height='300px' width='300px'  fill="#000000" xmlns="http://www.w3.org/2000/svg" xmlns:xlink="http://www.w3.org/1999/xlink" version="1.1" x="0px" y="0px" viewBox="0 0 512 512" style="enable-background:new 0 0 512 512;" xml:space="preserve"><g><path d="M416.78,205.847c0.14-1.021-0.05-1.981-0.407-2.88c-0.089-0.227-0.167-0.422-0.284-0.635   c-0.486-0.895-1.139-1.674-2.023-2.212c-0.029-0.018-0.036-0.056-0.066-0.074c0,0-17.384-10.171-35.004-19.606l6.622-70.469   c0.298-3.197-2.049-6.025-5.238-6.33l-23.337-2.194l2.936-31.243c0.142-1.538-0.333-3.062-1.311-4.253   c-0.985-1.184-2.396-1.928-3.934-2.077l-29.326-2.75c-3.218-0.234-6.025,2.042-6.323,5.238l-5.1,54.296l-9.034-61.774   c-0.468-3.162-3.275-5.288-6.592-4.905l-23.786,3.478l-1.634-11.176c-0.468-3.162-3.339-5.288-6.592-4.905l-23.389,3.42   l-2.251-15.393c-0.227-1.524-1.042-2.892-2.283-3.814c-1.226-0.922-2.736-1.304-4.31-1.092l-29.141,4.267   c-3.169,0.468-5.366,3.417-4.905,6.592l4.928,33.692l-17.067,2.499l-2.252-15.393c-0.461-3.162-3.289-5.274-6.592-4.905   l-29.134,4.26c-1.524,0.227-2.899,1.042-3.821,2.283c-0.922,1.233-1.311,2.786-1.092,4.31l1.008,6.895l-23.203,3.391   c-1.517,0.227-2.892,1.042-3.814,2.283c-0.922,1.233-1.311,2.786-1.092,4.31l14.841,101.489   c-14.893,8.878-34.386,19.358-34.597,19.471c-0.055,0.029-0.071,0.096-0.124,0.127c-0.907,0.522-1.604,1.271-2.112,2.165   c-0.112,0.196-0.175,0.381-0.263,0.588c-0.376,0.874-0.565,1.814-0.466,2.815c0.008,0.083-0.051,0.155-0.04,0.238   c0.004,0.026,0.028,0.041,0.032,0.066c0.006,0.041-0.011,0.078-0.004,0.119l45.594,261.704c0.284,1.645,1.269,3.091,2.701,3.955   l24.59,14.992c0.929,0.567,1.971,0.851,3.02,0.851c0.196,0,0.367-0.146,0.562-0.166c0.152-0.015,0.3-0.012,0.452-0.04   c24.321-4.388,53.228-6.798,83.539-6.982c30.779,0.184,59.899,2.602,84.213,6.982c0.097,0.018,0.189-0.019,0.286-0.006   c0.25,0.033,0.47,0.212,0.72,0.212c0.307,0,0.581-0.201,0.885-0.25c0.369-0.058,0.702-0.17,1.048-0.295   c0.359-0.13,0.752-0.102,1.086-0.306l24.59-14.992c1.432-0.865,2.417-2.311,2.701-3.955l45.594-261.704   c0.003-0.014-0.004-0.026-0.001-0.04c0.002-0.012,0.013-0.02,0.015-0.031C416.807,205.938,416.774,205.895,416.78,205.847z    M395.08,202.57l-18.541,4.013l1.274-13.562C384.024,196.394,390.088,199.745,395.08,202.57z M373.509,114.664l-6.446,68.567   c0,0.001,0.001,0.001,0,0.002l-2.225,23.668h-6.513c-0.062,0-0.113,0.034-0.175,0.035c-0.359,0.012-0.686,0.134-1.033,0.209   c-0.397,0.087-0.804,0.126-1.165,0.29c-0.308,0.138-0.553,0.373-0.833,0.562c-0.328,0.223-0.681,0.406-0.955,0.691   c-0.237,0.243-0.381,0.564-0.573,0.85c-0.231,0.345-0.488,0.661-0.642,1.053c-0.019,0.05-0.062,0.081-0.081,0.131   c-1.757,4.832-4.376,9.346-7.381,13.69l10.468-111.401L373.509,114.664z M330.106,73.231l17.764,1.666l-2.838,30.195   c-0.1,0.346-0.274,0.666-0.309,1.031l-9.626,102.487c-0.033,0.355,0.079,0.677,0.109,1.021l-2.723,28.966   c-0.382,0.326-0.716,0.681-1.105,1l-10.288-70.345L330.106,73.231z M294.294,66.313l26.438,180.795   c-5.34,3.264-10.976,6.269-17.16,8.675l-27.32-186.83L294.294,66.313z M262.282,53.709l30.067,205.634   c-5.631,1.589-11.439,2.872-17.475,3.714L244.637,56.291L262.282,53.709z M230.05,36.831l2.248,15.373   c0.001,0.005-0.002,0.011-0.001,0.016s0.004,0.01,0.005,0.015l30.97,211.802c-2.43,0.132-4.797,0.446-7.264,0.451   c-3.64-0.007-7.166-0.384-10.721-0.665l-27.891-190.72c-0.017-0.112-0.089-0.203-0.112-0.313L212.4,39.419L230.05,36.831z    M206.743,80.533l26.587,181.821c-6.292-1.064-12.335-2.549-18.144-4.427L189.608,83.046L206.743,80.533z M175.021,63.584   l2.192,14.992c0.01,0.144-0.044,0.275-0.023,0.419c0.021,0.146,0.111,0.258,0.143,0.4l25.406,173.739   c-7.074-3.21-13.715-6.883-19.472-11.25l-24.691-168.85c-0.051-0.343-0.232-0.618-0.338-0.936l-0.867-5.933L175.021,63.584z    M147.726,80.49l21.577,147.546c-4.286-5.386-7.922-11.099-10.181-17.314c-0.836-2.297-3.02-3.821-5.458-3.821l-5.27,0.043   l-3.542-24.215c-0.011-0.085-0.022-0.164-0.036-0.248l-14.544-99.44L147.726,80.49z M134.588,192.853l2.026,13.855l-19.167-4.074   C122.744,199.696,128.762,196.257,134.588,192.853z M151.785,463.175L108.114,212.49l23.548,4.923l32.166,253.098L151.785,463.175z    M176.106,475.003l-32.592-256.49h6.216c4.83,11.131,12.911,20.971,22.987,29.395c0.551,0.884,1.369,1.516,2.291,1.988   c16.954,13.309,39.531,22.366,64.558,25.188c0.248,0.033,0.423,0.252,0.678,0.252c0.276,0,0.56-0.021,0.851-0.057   c0.087-0.012,0.152-0.068,0.237-0.085c4.834,0.487,9.701,0.898,14.677,0.907c4.68-0.009,9.238-0.451,13.794-0.883   c0.048,0.001,0.08,0.047,0.128,0.047c0.276,0,0.56-0.021,0.851-0.057c0.066-0.01,0.115-0.053,0.18-0.065   c9.712-0.999,18.989-2.988,27.826-5.745c0.019,0,0.032,0.019,0.051,0.019c0.276,0,0.56-0.021,0.851-0.057   c0.944-0.139,1.756-0.548,2.483-1.068c9.662-3.297,18.569-7.547,26.574-12.686c1.197-0.377,2.256-1.025,2.97-1.991   c3.146-2.169,6.127-4.434,8.927-6.864c0.962-0.494,1.769-1.224,2.329-2.157c8.262-7.673,14.745-16.43,18.961-26.107l6.551-0.047   l-32.602,256.564c-23.704-3.864-51.151-6.072-80.221-6.242C227.026,468.931,199.78,471.139,176.106,475.003z M360.204,463.175   l-12.044,7.337l32.151-252.985l23.558-5.006L360.204,463.175z"></path><path d="M337.123,343.201c0-22.847-18.586-41.426-41.426-41.426h-72.871c-1.239,0-2.407,0.259-3.618,0.366   c-0.812-0.236-1.669-0.341-2.563-0.196c-0.59,0.1-1.099,0.362-1.606,0.617c-19.123,3.66-33.639,20.459-33.639,40.639   c0,22.847,18.586,41.426,41.426,41.426h72.871C318.537,384.626,337.123,366.047,337.123,343.201z M325.512,343.201   c0,6.915-2.464,13.206-6.43,18.269l-6.25-42.591C320.477,324.282,325.512,333.148,325.512,343.201z M224.465,313.386h16.233   l8.591,59.629h-14.755L224.465,313.386z M252.435,313.386h18.075l8.757,59.629h-18.241L252.435,313.386z M193.012,343.201   c0-12.974,8.382-23.925,19.976-28.013l9.765,57.821C206.35,372.967,193.012,359.613,193.012,343.201z M291.012,373.015   l-8.756-59.629h13.442c1.593,0,3.126,0.229,4.652,0.47l8.234,56.109c-3.916,1.895-8.252,3.05-12.886,3.05H291.012z"></path></g></svg>