<svg height='300px' width='300px'  fill="#000000" xmlns="http://www.w3.org/2000/svg" xmlns:xlink="http://www.w3.org/1999/xlink" version="1.1" x="0px" y="0px" viewBox="0 0 512 512" style="enable-background:new 0 0 512 512;" xml:space="preserve"><g><path d="M343.393,183.317c2.533-6.395,2.727-15.785-8.68-25.819c0.41-0.875,0.754-1.732,0.975-2.531   c2.128-7.631-2.453-16.735-11.601-24.725c0.577-1.075,1.276-2.101,1.606-3.272c2.212-7.785-1.576-15.87-10.129-23.228   c0.489-0.937,1.229-1.729,1.576-2.741c3.48-10.129-1.832-18.751-15.59-25.714c-0.037-0.596,0.038-1.18-0.066-1.781   c-1.187-6.87-6.679-12.567-14.688-15.253c-18.123-6.065-18.434-26.81-18.441-27.686c-0.007-2.276-1.357-4.347-3.435-5.273   c-2.078-0.933-4.517-0.558-6.206,0.954c-0.679,0.608-16.617,15.013-16.822,32.167c-0.016,1.376,0.205,2.691,0.384,4.017   c-9.205,1.6-15.908,6.173-19.688,13.986c-1.693,3.493-1.778,7.218-1.051,10.946c-8.194,3.745-11.608,8.773-12.725,12.725   c-0.653,2.308-0.712,4.658-0.325,7.016c-8.807,2.896-14.445,7.38-16.094,13.326c-1.102,3.956-0.382,8.155,1.58,12.408   c-4.699,2.714-7.768,6.089-9.03,10.139c-0.698,2.253-0.697,4.65-0.356,7.078c-3.963,3.131-6.914,7.063-8.423,11.413   c-1.894,5.457-1.23,11.486,1.901,17.444c0.303,0.576,0.797,1.146,1.147,1.721c-5.524,3.672-12.881,10.057-13.389,18.459   c-0.108,1.785,0.114,3.516,0.603,5.202c-0.168,0.613-0.297,1.246-0.249,1.915l1.965,28.106c0.001,0.016,0.002,0.032,0.004,0.048   l2.774,39.673c0.804,11.467,7.207,21.527,16.592,27.388l53.27,173.844c2.226,7.266,8.553,11.945,16.144,11.945   c0.035,0,0.078,0,0.12,0c7.634-0.049,13.96-4.821,16.108-12.157l50.569-173.768c9.413-5.825,15.84-16.005,16.636-27.556   l4.757-69.278c0.056-0.148,0.168-0.273,0.219-0.421c1.408-4.052,1.562-10.524-3.167-18.817   C342.537,184.565,343.119,184.007,343.393,183.317z M331.967,226.986c-23.897,8.571-52.924,13.569-80.518,13.569   c-30.498,0-57.014-6.485-72.037-11.073l-0.817-11.677c10.714,6.436,25.315,8.444,39.069,8.444c17.597,0,33.675-3.16,38.126-4.115   c12.27,2.703,24.308,4.066,35.398,4.066c16.848,0,31.454-3.017,41.423-8.585L331.967,226.986z M213.592,117.599   c3.47,4.314,8.496,8.492,15.141,12.296c0.905,0.516,1.894,0.763,2.87,0.763c2.007,0,3.965-1.046,5.033-2.912   c1.59-2.778,0.629-6.312-2.149-7.902c-11.429-6.545-15.536-13.055-14.532-16.603c0.585-2.064,2.872-4.018,6.444-5.587   c5.207,6.165,13.846,11.564,25.194,15.588c0.643,0.226,1.293,0.332,1.937,0.332c2.382,0,4.616-1.477,5.457-3.852   c1.067-3.018-0.509-6.326-3.52-7.393c-13.861-4.912-20.717-11.337-22.505-15.706c-0.77-1.866-0.749-3.506,0.049-5.16   c1.645-3.386,4.934-7.081,13.448-7.908c1.444,2.219,3.106,4.373,5.247,6.374c2.333,2.156,5.987,2.057,8.185-0.283   c2.177-2.333,2.057-6.001-0.283-8.185c-4.17-3.895-6.178-8.114-6.135-12.885c0.057-5.393,2.644-10.687,5.492-14.907   c2.827,9.16,9.309,20.59,24.159,25.566c3.902,1.308,6.503,3.64,6.955,6.241c0.057,0.331-0.086,0.63-0.102,0.952   c-0.239,0.566-0.315,1.149-0.368,1.73c-0.317,0.633-0.72,1.24-1.339,1.728c-3.315,2.587-9.493,2.311-16.54-0.742   c-2.926-1.301-6.34,0.064-7.612,3.004c-1.279,2.926,0.071,6.34,3.004,7.612c5.301,2.304,10.411,3.456,15.041,3.456   c5.139,0,9.683-1.414,13.26-4.22c0.982-0.773,1.783-1.678,2.547-2.601c10.063,5.458,8.707,9.418,8.218,10.843   c-1.93,5.612-9.457,9.351-20.144,10.002c-3.188,0.198-5.619,2.94-5.428,6.135c0.191,3.068,2.742,5.435,5.775,5.435   c0.12,0,0.24,0,0.36-0.007c8.719-0.532,15.805-2.899,21.178-6.535c4.919,4.184,7.506,8.433,6.628,11.539   c-0.961,3.407-5.916,6.411-13.26,8.044c-10.199,2.283-24.117,1.767-38.26-1.4c-1.711-0.389-3.407-0.806-5.061-1.251   c-3.053-0.82-6.262,0.99-7.096,4.085c-0.834,3.089,0.997,6.262,4.085,7.096c1.809,0.488,3.661,0.947,5.541,1.364   c9.203,2.064,18.208,3.096,26.485,3.096c6.072,0,11.754-0.558,16.822-1.682c4.821-1.073,8.756-2.773,12.126-4.791   c6.219,5.26,9.369,10.73,8.598,13.492c-0.192,0.689-0.592,1.368-1.142,2.029c-0.189,0.137-0.34,0.326-0.513,0.488   c-1.856,1.904-5.061,3.639-9.428,4.94c-3.061,0.912-4.806,4.135-3.895,7.202c0.749,2.509,3.053,4.135,5.549,4.135   c0.544,0,1.103-0.078,1.654-0.24c4.176-1.244,7.388-2.775,9.982-4.42c5.361,4.637,7.475,9.024,5.879,13.051   c-0.306,0.774-0.977,1.499-1.707,2.212c-0.175,0.213-0.419,0.379-0.559,0.611c-3.068,2.52-8.716,4.554-16.111,5.672   c-15.225,2.297-36.111,0.608-57.359-4.608c-2.601-0.629-5.132-1.315-7.612-2.022c-3.103-0.891-6.277,0.905-7.16,3.979   c-0.876,3.075,0.905,6.284,3.979,7.16c2.622,0.749,5.308,1.463,8.044,2.135c15.875,3.895,31.701,5.923,45.477,5.923   c5.558,0,10.715-0.387,15.477-1.057c0.004,0,0.006,0.004,0.01,0.004c0.29,0,0.58-0.021,0.869-0.064   c7.192-1.085,13.079-2.957,17.646-5.492c0.954,2.247,1.501,4.665,0.781,6.736c-4.057,11.655-41.257,20.413-84.338,8.623   c-34.818-9.542-56.1-24.626-61.741-35.341c-1.654-3.138-2.05-5.838-1.209-8.256c0.496-1.436,1.369-2.836,2.511-4.125   c5.516,7.091,15.135,14.137,28.109,20.333c0.806,0.389,1.654,0.565,2.488,0.565c2.163,0,4.241-1.216,5.23-3.294   c1.378-2.884,0.156-6.34-2.728-7.718c-13.84-6.616-23.671-14.341-26.287-20.66c-0.636-1.527-0.77-2.827-0.424-3.958   c0.333-1.073,1.741-2.58,4.635-4.067c2.097,2.168,4.446,4.329,7.268,6.449c1.039,0.785,2.262,1.159,3.47,1.159   c1.76,0,3.499-0.799,4.637-2.311c1.923-2.559,1.407-6.185-1.152-8.107c-9.627-7.231-12.108-13.133-11.316-15.995   C204.056,121.716,207.463,119.364,213.592,117.599z M186.561,189.676c9.459,9.186,24.347,17.745,42.561,24.519   c-15.17,1.174-33.669,0.674-45.131-6.564c-2.545-1.612-6.785-4.764-6.609-7.832C177.576,196.48,182.178,192.438,186.561,189.676z    M262.038,471.813c-1.032,3.52-4.142,3.817-5.068,3.824c-0.763-0.106-4.043-0.262-5.117-3.76l-50.686-165.409   c16.338,3.152,34.853,4.855,53.81,4.855c19.562,0,38.552-1.81,55.262-5.156L262.038,471.813z M310.455,294.365   c-32.372,6.899-76.245,7.061-109.077,0.389c-10.39-2.113-18.165-10.963-18.907-21.523l-2.197-31.427   c16.222,4.65,41.945,10.328,71.176,10.328c27.107,0,55.477-4.715,79.664-12.717l-2.302,33.526   C328.09,283.403,320.542,292.21,310.455,294.365z"></path><path d="M222.576,157.772c10.065,5.089,21.714,9.167,33.694,11.804c12.058,2.651,23.975,4.015,34.931,4.015   c2.707,0,5.358-0.085,7.938-0.254c3.195-0.205,5.612-2.962,5.4-6.149c-0.212-3.202-3.103-5.739-6.149-5.4   c-11.931,0.756-25.636-0.445-39.631-3.52c-11.041-2.431-21.749-6.178-30.966-10.828c-2.87-1.456-6.34-0.304-7.775,2.559   C218.576,152.846,219.721,156.33,222.576,157.772z"></path></g></svg>