<svg height='300px' width='300px'  fill="#000000" xmlns="http://www.w3.org/2000/svg" data-name="Layer 1" viewBox="0 0 90 90" x="0px" y="0px"><title>2_Random</title><path d="M23.73,62.65c-.43-1.36-.82-2.33-1-3.33a4.83,4.83,0,0,0-3-3.86c-3.83-1.72-4.45-7.33-1.34-10.19a9.88,9.88,0,0,1,2.27-1.15c.77-4.26-.67-8.77.48-13.13,1.88.11,1.91.14,1.9,1.63,0,3.83-.13,7.67-.06,11.5a81,81,0,0,0,1.69,14.5c2,10.14,13.19,18.14,24.69,15.61a11.17,11.17,0,0,0,8.07-6.51A43.36,43.36,0,0,0,61,53.38c.61-6,.82-11.95,1.19-17.92,0-.8,0-1.6,0-2.4s.23-1.56,1.14-1.41c.45.08,1,.74,1.15,1.24a4.25,4.25,0,0,1,0,1.66c-.14,2.95-.3,5.89-.42,8.84a15.7,15.7,0,0,0,.17,2c.76.23,1.44.41,2.11.65a5.26,5.26,0,0,1,3.37,4.54,10.79,10.79,0,0,1-1.84,6.11,5,5,0,0,1-3.79,2.25c-1.33.13-1.84.87-2.1,2.16a28.25,28.25,0,0,1-3.74,9.79c-2.56,4-6.41,5.51-10.93,5.81-8.4.55-15-2.88-20.48-9a10.76,10.76,0,0,0-3-2.27,29.73,29.73,0,0,1-10-8.81,8.44,8.44,0,0,1-1.5-5.22c0-.73.11-1.53,1.08-1.59s1,.74,1.21,1.46A16.59,16.59,0,0,0,23.73,62.65Zm39.11-5.72c3.49-.55,5.91-5.41,4.29-8.14a2.6,2.6,0,0,0-1-.95A1.43,1.43,0,0,0,63.86,49C63.48,51.56,63.2,54.15,62.84,56.93ZM20.79,46.38c-3.09,3.25-2.6,6.77.81,7.67Z"></path><path d="M45.59,50.8l-4.12.1c-.08,1.39-.16,2.55-.22,3.72-.07,1.39-.48,1.92-1.85,1.94-3.67.06-7.35.09-11,0-2.1,0-2.84-.94-2.83-3,0-3.28.1-6.55.08-9.83,0-1.19.63-1.57,1.61-1.62q3-.14,6-.2a30.51,30.51,0,0,1,4.31.08c2.75.35,3.79,1.4,3.43,3.6a12.29,12.29,0,0,0,.2,2.78l4.67.28.32-5.34a14.67,14.67,0,0,1,2.77-1c2.29-.35,4.6-.49,6.9-.79,2.76-.36,3.28.08,3.1,2.9-.09,1.43-.36,2.86-.46,4.29q-.25,3.7-.38,7.4c-.07,1.92-.4,2.1-2.27,2-2.54-.08-5.09,0-7.63.19-1.95.11-2.2,0-2.37-2C45.67,54.67,45.67,52.92,45.59,50.8Zm-6.73,3.28c0-3,0-6-.12-8.89a1.73,1.73,0,0,0-1.23-1.13c-2.7-.14-5.42-.14-8.13-.15A1.25,1.25,0,0,0,28,45.21c-.08,2.71-.12,5.43-.17,8.14a1.22,1.22,0,0,0,1.26,1.42A42.4,42.4,0,0,0,38.86,54.08Zm9.92-9.65a3.5,3.5,0,0,0-.37.86c-.19,3.17-.39,6.35-.54,9.52,0,1,.71,1.4,1.59,1.35,2-.12,3.94-.32,6.11-.5.12-4,1.13-7.89.88-12.15Z"></path><path d="M73.76,15.89c-1.27.51-2.35,1-3.46,1.39-3.57,1.3-7.27,1.07-10.91.63-3.24-.39-6.44-1.15-9.64-1.81-2.42-.5-4.81-1.17-7.24-1.65A18.53,18.53,0,0,0,31,15.67c-1.83.82-1.86.74-2.83-.83a11.76,11.76,0,0,1,5.11-2.36c4.75-1.19,9.37-.31,13.95.94,5.48,1.5,11,2.93,16.73,2.75a24.27,24.27,0,0,0,6.29-1.23,7.11,7.11,0,0,0,4.22-4l1.74.57c0,2.4.2,4.55.1,6.68-.26,5.58-1.43,10.9-4.79,15.56C70.73,34.92,70,35,69,34.07c1-2,2.05-3.79,2.82-5.76a58.74,58.74,0,0,0,1.76-6A10.8,10.8,0,0,0,73.76,15.89Z"></path><path d="M24.21,17.71a6.31,6.31,0,0,1-.69.9Q22,20,20.47,21.31c-5.05,4.33-7.24,10-7.66,16.46-.14,2.13.28,4.28.34,6.43,0,.55-.17,1.39-.55,1.61-.77.46-1.41-.21-1.66-.88a11.81,11.81,0,0,1-.7-3,29.16,29.16,0,0,1,2.69-14.68c1.71-3.84,4.64-6.66,7.82-9.25C22.12,16.88,22.73,16.93,24.21,17.71Z"></path><path d="M58.16,31.15c-2.34,1.58-4.32,3.22-6.91,3.57-4.1.55-8.22,1-12.35,1.38A28.42,28.42,0,0,1,26.28,34c-1.28-.49-1.26-.52-1.9-2.17a6,6,0,0,1,1.82.13c8.14,3.57,16.41,2.41,24.67.66a17.47,17.47,0,0,0,3.89-1.81A2.52,2.52,0,0,1,58.16,31.15Z"></path><path d="M33.11,62.72c1.44-.3,1.84.35,2.35,1.32,1.9,3.66,4.7,6.12,9.06,6.5A5.92,5.92,0,0,0,49.36,69a31.85,31.85,0,0,0,3.23-3.78c.5-.65.93-1.12,1.75-.61s.71,1.18.25,1.85a18.4,18.4,0,0,1-5.8,5.6,4.21,4.21,0,0,1-2.05.57c-4.42,0-8.38-1.27-11.13-5C34.56,66.23,33.14,64.92,33.11,62.72Z"></path><path d="M27.76,26.19c.91.14,1.51.21,2.1.32,2.51.48,5,1.08,7.52,1.43A16.22,16.22,0,0,0,49,25.17,9.91,9.91,0,0,1,51.3,24a1.32,1.32,0,0,1,1.19.45,1.26,1.26,0,0,1-.3,1.2c-3,2-6,3.94-9.74,4.28-4.28.39-8.41-.6-12.57-1.36A2.3,2.3,0,0,1,27.76,26.19Z"></path><path d="M69.27,37.4c1.25-.54,2-.23,2.11,1a13.52,13.52,0,0,1-1.92,7.27,1.25,1.25,0,0,1-1.18.34c-.34-.15-.54-.7-.7-1.11-.07-.17.1-.45.2-.66A12.35,12.35,0,0,0,69.27,37.4Z"></path><path d="M62.22,28.34c1.53-1.78,2.89-3.29,4.17-4.86.49-.61,1-1.24,1.7-.63a1.73,1.73,0,0,1,.21,1.63,10.83,10.83,0,0,1-4,4.61C63.14,29.76,62.92,29.64,62.22,28.34Z"></path><path d="M37.47,21.68c1.78-.22,3.42-.47,5.06-.6.35,0,.73.38,1.09.59-.2.31-.34.84-.59.9a30.74,30.74,0,0,1-4.39.73C37.88,23.36,37.36,22.78,37.47,21.68Z"></path><path d="M40.85,62c1.45-1.47,2.1-1.67,3.26-1.12a2.49,2.49,0,0,1,1.38,2.77c-.09.65-.26,1.4-1.07,1.28-.39-.06-.76-.64-1-1-.15-.23-.09-.6-.14-1a9.91,9.91,0,0,1-1.16-.26A12.51,12.51,0,0,1,40.85,62Z"></path><path d="M35.26,50.22c-.22.19-.51.62-.88.7-.71.16-1.8-.7-1.68-1.33a1.43,1.43,0,0,1,.89-.89A1.46,1.46,0,0,1,35.26,50.22Z"></path><path d="M51.42,52.08a8.12,8.12,0,0,1-.85-1.79c0-.15.77-.7,1-.6a6,6,0,0,1,1.27,1.15Z"></path></svg>