<svg height='300px' width='300px'  fill="#000000" xmlns="http://www.w3.org/2000/svg" viewBox="0 0 512 512" x="0px" y="0px"><g><path d="M462.839,16c-.18,0-.357,0-.536,0-16.715,0-31.047,12.6-33.452,29.5l-.358,2.5H383.772a35.972,35.972,0,0,0-63.165-19.32A33.653,33.653,0,0,0,294.29,16h-1.22a33.787,33.787,0,0,0-33.044,27.09L259.044,48H215.772a35.994,35.994,0,0,0-71.544,0H40.276l-.138,0L40,48A24.027,24.027,0,0,0,16,72c0,.046,0,.092,0,.138s0,.092,0,.138A24.184,24.184,0,0,0,39.438,96.538l10.5.362L17.645,139.142A8,8,0,0,0,21.47,151.59l24,8a8,8,0,0,0,8.356-2.108L108.864,99,144,100.949V296H80a64.067,64.067,0,0,0-63.99,63.618c0,.018,0,.035,0,.053,0,.11-.008.219-.008.329s.009.245.009.369v.044A64.068,64.068,0,0,0,80,424h89.15a56.122,56.122,0,0,1,35.465,12.662l27.969,22.879A161.288,161.288,0,0,0,496,334.72V49.71A33.868,33.868,0,0,0,462.839,16ZM393.062,296H364.117L328,245.437V111.146l49.821,2.76,24.066,120.322ZM320,261.764,344.455,296h-48.91Zm88.686-75.125-14.365-71.818,24.432,1.353Zm12.338-86.362-44.413-2.462A35.81,35.81,0,0,0,384,76V64h42.207ZM348,32a20.023,20.023,0,0,1,20,20V76a20,20,0,0,1-40,0V52A20.023,20.023,0,0,1,348,32ZM231.314,186.641l-11.645-81.495,27.639,1.531Zm19.164-95.812-36.833-2.041A35.8,35.8,0,0,0,216,76V64h39.844ZM160,52a20,20,0,0,1,40,0V76a20,20,0,0,1-40,0ZM40,80a8.006,8.006,0,0,1-7.993-7.862,8.278,8.278,0,0,1,8.131-8.131A8,8,0,0,1,40,80Zm66.032,2.822a7.948,7.948,0,0,0-6.268,2.5L45.679,142.794l-8.516-2.839L72.065,94.3a8,8,0,0,0-6.079-12.854l-3.867-.133A23.969,23.969,0,0,0,62.624,64H144V76a35.914,35.914,0,0,0,1.136,8.988ZM160,105.917a35.9,35.9,0,0,0,42.356-1.731l1.022.056,18.509,129.534L209.441,296H160ZM80,408a48.054,48.054,0,0,1-47.83-44.127L48,352a40.249,40.249,0,0,1,24-8,8,8,0,0,0,0-16,56.358,56.358,0,0,0-33.6,11.2l-2.507,1.88A48.069,48.069,0,0,1,80,312h32a48.066,48.066,0,0,1,44.107,29.08L153.6,339.2A56.358,56.358,0,0,0,120,328a8,8,0,0,0,0,16,40.249,40.249,0,0,1,24,8l15.83,11.873A48.054,48.054,0,0,1,112,408ZM480,77.35l-30.418,40.874,12.836,9.552L480,104.15v29.2l-30.418,40.874,12.836,9.552L480,160.15v29.2l-30.418,40.874,12.836,9.552L480,216.15V334.72A145.283,145.283,0,0,1,242.715,447.157L214.749,424.28A72.16,72.16,0,0,0,169.15,408H154.264a63.848,63.848,0,0,0,21.726-47.587v-.044c0-.124.009-.245.009-.369s-.008-.219-.008-.329c0-.018,0-.035,0-.053A63.845,63.845,0,0,0,154.264,312H216a8,8,0,0,0,7.845-6.431l51.87-259.341A17.743,17.743,0,0,1,293.07,32h1.22A17.73,17.73,0,0,1,312,49.71V77.35l-30.418,40.874,12.836,9.552L312,104.15v29.2l-30.418,40.874,12.836,9.552L312,160.15v29.2l-30.418,40.874,12.836,9.552L312,216.15v29.287l-38.388,53.742L241.753,339,254.247,349l29.6-37H400a8,8,0,0,0,7.919-6.868L444.69,47.757A18.071,18.071,0,0,1,462.3,32c.092,0,.184,0,.277,0A17.794,17.794,0,0,1,480,49.71V77.35Z"></path><path d="M142.311,373.268l.844-1.69-14.31-7.156L128,366.111a17.814,17.814,0,0,1-8,8.009V368a24,24,0,0,0-48,0v6.12a17.814,17.814,0,0,1-8-8.009l-.845-1.689-14.31,7.156.844,1.69A33.705,33.705,0,0,0,80,392h32A33.705,33.705,0,0,0,142.311,373.268ZM88,376v-8a8,8,0,0,1,16,0v8Z"></path><rect x="240" y="376" width="48" height="16"></rect><rect x="312" y="384" width="48" height="16"></rect><rect x="272" y="416" width="48" height="16"></rect><rect x="328" y="344" width="48" height="16"></rect><rect x="400" y="368" width="48" height="16"></rect><rect x="368" y="416" width="48" height="16"></rect></g></svg>