<svg height='300px' width='300px'  fill="#000000" xmlns="http://www.w3.org/2000/svg" xmlns:xlink="http://www.w3.org/1999/xlink" version="1.1" x="0px" y="0px" viewBox="0 0 50 50" enable-background="new 0 0 50 50" xml:space="preserve"><g><path d="M45.542,13.317H25.871c-0.198-0.992-0.686-1.88-1.371-2.573l6.168-4.1c0.46-0.306,0.585-0.927,0.279-1.387   c-0.307-0.46-0.93-0.585-1.387-0.279l-6.9,4.587c-1-0.377-1.779-0.395-2.622-0.254l-6.428-7.939   c-0.349-0.429-0.978-0.496-1.406-0.148c-0.43,0.348-0.496,0.978-0.149,1.407l6.024,7.44c-1.113,0.736-1.922,1.894-2.193,3.247   H4.459C2.552,13.317,1,14.869,1,16.776v25.179c0,1.907,1.552,3.458,3.459,3.458h1.383V48c0,0.552,0.447,1,1,1h3.602   c0.413,0,0.784-0.254,0.933-0.64l1.138-2.946h24.974l1.138,2.946c0.148,0.385,0.52,0.64,0.933,0.64h3.602c0.553,0,1-0.448,1-1   v-2.586h1.383c1.907,0,3.458-1.551,3.458-3.458V16.776C49,14.869,47.449,13.317,45.542,13.317z M23.806,13.317h-5.853   C18.903,10.541,22.85,10.532,23.806,13.317z M9.758,47H7.842v-1.586h2.528L9.758,47z M42.159,47h-1.916l-0.612-1.586h2.528V47z    M47,41.955c0,1.79-1.998,1.458-3.841,1.458c-9.17,0-30.575,0-38.7,0C3.654,43.414,3,42.759,3,41.955V16.776   c0-0.804,0.654-1.458,1.459-1.458c14.836,0,26.247,0,41.083,0c0.804,0,1.458,0.654,1.458,1.458V41.955z"></path><path d="M32.479,18.235H6.917c-0.553,0-1,0.448-1,1v20.262c0,1.378-0.645,1,26.562,1c0.553,0,1-0.448,1-1V19.235   C33.479,18.683,33.031,18.235,32.479,18.235z M31.479,38.497H7.917V20.235h23.562V38.497z"></path><path d="M35.664,39.62c0,0.54,0.46,1,1,1c0.565,0,1.01-0.474,1.01-1c0-0.26-0.11-0.52-0.3-0.71   C36.792,38.328,35.664,38.692,35.664,39.62z"></path><path d="M39.254,39.62c0,1.326,2,1.309,2,0c0-0.27-0.11-0.52-0.29-0.71C40.377,38.323,39.254,38.683,39.254,39.62z"></path><path d="M43.134,40.32c0.366,0.387,0.998,0.411,1.41,0c0.39-0.371,0.382-1.047,0-1.41C43.595,37.962,42.2,39.437,43.134,40.32z"></path><path d="M39.633,25.235c1.93,0,3.5-1.57,3.5-3.5s-1.57-3.5-3.5-3.5c-1.93,0-3.5,1.57-3.5,3.5S37.703,25.235,39.633,25.235z    M39.633,20.235c0.827,0,1.5,0.673,1.5,1.5c0,0.827-0.673,1.5-1.5,1.5c-0.827,0-1.5-0.673-1.5-1.5   C38.133,20.908,38.806,20.235,39.633,20.235z"></path><path d="M39.633,27.159c-1.93,0-3.5,1.57-3.5,3.5c0,1.93,1.57,3.5,3.5,3.5c1.93,0,3.5-1.57,3.5-3.5   C43.133,28.729,41.563,27.159,39.633,27.159z M39.633,32.159c-0.827,0-1.5-0.673-1.5-1.5c0-0.827,0.673-1.5,1.5-1.5   c0.827,0,1.5,0.673,1.5,1.5C41.133,31.486,40.46,32.159,39.633,32.159z"></path><path d="M10.521,29.989l6.559-6.558c0.391-0.391,0.391-1.023,0-1.414c-0.391-0.391-1.023-0.391-1.414,0   c-6.397,6.397-7.559,6.972-6.559,7.972C9.498,30.38,10.131,30.38,10.521,29.989z"></path><path d="M11.045,35.894l11.94-11.94c0.391-0.391,0.391-1.024,0-1.414c-0.391-0.391-1.023-0.391-1.414,0L9.631,34.48   C8.697,35.414,10.111,36.828,11.045,35.894z"></path></g></svg>